<?xml version="1.0" standalone="no"?>
<!DOCTYPE svg PUBLIC "-//W3C//DTD SVG 20010904//EN"
 "http://www.w3.org/TR/2001/REC-SVG-20010904/DTD/svg10.dtd">
<svg version="1.0" xmlns="http://www.w3.org/2000/svg"
 width="251.000000pt" height="251.000000pt" viewBox="0 0 251.000000 251.000000"
 preserveAspectRatio="xMidYMid meet">
<metadata>
Created by potrace 1.14, written by Peter Selinger 2001-2017
</metadata>
<g transform="translate(0.000000,251.000000) scale(0.100000,-0.100000)"
fill="#000000" stroke="none">
<path d="M1187 2483 c-5 -9 -1 -56 9 -101 3 -15 7 -88 8 -162 3 -124 1 -139
-20 -189 -24 -54 -66 -100 -94 -103 -8 0 -34 -2 -58 -2 -29 -1 -46 -7 -56 -21
-7 -11 -14 -22 -14 -25 0 -3 -5 -18 -11 -33 -6 -16 -11 -33 -11 -38 0 -5 -4
-9 -10 -9 -5 0 -10 -11 -10 -25 0 -14 -4 -25 -8 -25 -5 0 -9 -6 -10 -12 0 -7
-17 -58 -36 -113 -20 -56 -38 -116 -40 -135 -3 -19 -5 -35 -6 -35 -1 0 -3 -36
-5 -80 -6 -108 -14 -164 -27 -189 -33 -61 -111 -74 -174 -28 -56 41 -77 90
-80 187 -2 44 -3 83 -3 88 -3 31 -91 -67 -91 -100 0 -6 -3 -13 -7 -15 -11 -4
-53 -95 -53 -113 0 -8 -4 -15 -9 -15 -5 0 -11 -12 -14 -28 -3 -15 -14 -63 -25
-107 -22 -93 -21 -184 2 -270 18 -64 85 -196 117 -231 10 -11 19 -25 19 -31 0
-6 4 -13 8 -15 4 -2 23 -23 42 -48 19 -25 38 -47 42 -50 11 -9 27 -58 21 -64
-13 -12 -60 -5 -105 18 -26 13 -50 21 -52 19 -3 -3 12 -19 32 -36 20 -18 49
-43 65 -57 53 -46 142 -110 154 -110 6 0 13 -4 15 -9 4 -11 136 -77 190 -95
70 -24 131 -38 173 -43 75 -8 277 -8 282 0 2 4 8 5 11 3 4 -2 28 0 52 5 108
21 143 30 159 43 8 6 15 10 15 8 3 -10 74 17 176 66 63 31 118 55 123 54 4 -1
7 1 7 5 0 5 23 22 51 38 28 17 60 37 72 46 20 15 19 16 -22 14 -44 -2 -64 15
-53 45 4 12 43 57 90 106 7 8 11 14 9 14 -3 0 9 15 26 33 58 59 121 150 127
182 1 6 6 16 12 23 6 6 7 12 4 12 -4 0 -2 9 4 19 19 37 26 142 17 261 -4 58
-36 201 -54 240 -3 8 -7 18 -8 23 -2 4 -3 8 -5 10 -1 1 -3 11 -5 22 -8 42 -50
135 -60 132 -5 -2 -13 -23 -16 -48 -8 -64 -11 -71 -41 -96 -41 -36 -103 -30
-144 14 -30 32 -31 36 -28 116 1 45 7 107 11 137 34 215 -26 371 -213 554
-111 110 -154 149 -154 143 0 -3 -19 13 -42 34 -23 21 -44 37 -46 35 -2 -2
-16 8 -31 22 -16 15 -38 34 -51 42 -12 8 -36 27 -54 42 -17 15 -39 30 -48 34
-10 3 -18 10 -18 15 0 11 -17 12 -23 2z"/>
<path d="M584 1903 c-3 -13 -10 -23 -15 -23 -5 0 -9 -6 -9 -14 0 -7 -9 -25
-20 -38 -10 -14 -16 -29 -12 -33 4 -5 3 -6 -3 -3 -5 3 -19 -5 -30 -19 -11 -13
-28 -33 -37 -45 -10 -12 -18 -24 -19 -27 0 -3 -3 -15 -6 -26 -12 -48 -13 -164
0 -171 6 -4 9 -4 6 0 -4 4 15 28 42 54 27 26 49 53 49 60 0 6 4 12 10 12 5 0
12 11 16 25 3 14 10 25 14 25 4 0 11 17 15 38 5 20 10 44 12 52 8 28 9 119 1
137 -6 16 -7 16 -14 -4z"/>
</g>
</svg>
